<?xml version="1.0" encoding="utf-8"?>
<!-- Generator: Adobe Illustrator 19.1.0, SVG Export Plug-In . SVG Version: 6.00 Build 0)  -->
<svg version="1.1" id="Layer_1" xmlns="http://www.w3.org/2000/svg" xmlns:xlink="http://www.w3.org/1999/xlink" x="0px" y="0px"
	 viewBox="0 0 44 44" style="enable-background:new 0 0 44 44;" xml:space="preserve">
<style type="text/css">
	.st0{fill:#FFFFFF;}
	.st1{fill:#57C1E8;}
	.st2{fill:#FFC627;}
	.st3{fill:#904799;}
</style>
<g>
	<path class="st0" d="M40.7,6.4v2.5v13.4h0C40.6,32.5,32.3,40.7,22,40.7C11.7,40.7,3.3,32.3,3.3,22C3.3,11.7,11.6,3.3,22,3.3h13.2
		h2.5C39.3,3.3,40.7,4.7,40.7,6.4 M40.3,0h-2.9H22C9.8,0,0,9.9,0,22c0,12.2,9.8,22,22,22c12.1,0,21.8-9.7,22-21.7h0V6.6V3.7
		C44,1.7,42.3,0,40.3,0"/>
	<path class="st1" d="M22.7,22.7v14.6C30.6,37,37,30.6,37.4,22.7H22.7z"/>
	<path class="st2" d="M21.3,21.3V6.5c-8,0.4-14.4,6.8-14.7,14.8H21.3z"/>
	<path class="st3" d="M37.4,21.3V11.1v-2c0-1.4-1.2-2.6-2.6-2.6h-2h-10v14.8H37.4z"/>
</g>
</svg>
